<svg width="16" height="16" viewBox="0 0 16 16" fill="none" xmlns="http://www.w3.org/2000/svg">
            <path d="M13.1667 13.8334C11.7889 13.8334 10.4362 13.5194 9.10869 12.8914C7.78069 12.2638 6.60291 11.4362 5.57536 10.4087C4.54736 9.38069 3.71958 8.20558 3.09202 6.88336C2.46402 5.56114 2.15002 4.21114 2.15002 2.83336C2.15002 2.63336 2.21402 2.46936 2.34202 2.34136C2.46958 2.2138 2.63336 2.15002 2.83336 2.15002H5.41669C5.57225 2.15002 5.70847 2.19714 5.82536 2.29136C5.9418 2.38602 6.01114 2.51114 6.03336 2.66669L6.46669 4.93336C6.48891 5.06669 6.48625 5.19447 6.45869 5.31669C6.43069 5.43891 6.36669 5.55002 6.26669 5.65002L4.70002 7.25002C5.16669 8.05002 5.74447 8.79158 6.43336 9.47469C7.12225 10.1582 7.89447 10.7667 8.75002 11.3L10.3334 9.73336C10.4334 9.63336 10.5474 9.5638 10.6754 9.52469C10.8029 9.48602 10.9334 9.4778 11.0667 9.50002L13.3167 9.95003C13.4722 9.98336 13.6 10.0582 13.7 10.1747C13.8 10.2916 13.85 10.4278 13.85 10.5834V13.15C13.85 13.35 13.7862 13.5138 13.6587 13.6414C13.5307 13.7694 13.3667 13.8334 13.1667 13.8334ZM4.10002 6.06669L5.20002 4.96669L4.90002 3.40002H3.43336C3.4778 3.84447 3.55291 4.29158 3.65869 4.74136C3.76402 5.19158 3.91114 5.63336 4.10002 6.06669ZM12.6 12.55V11.0834L11.0667 10.75L9.93336 11.8834C10.3556 12.0722 10.7918 12.2222 11.242 12.3334C11.6918 12.4445 12.1445 12.5167 12.6 12.55Z" fill="#3F53D9" />
          </svg>