<svg width="28" height="28" viewBox="0 0 28 28" fill="none" xmlns="http://www.w3.org/2000/svg">
<path fill-rule="evenodd" clip-rule="evenodd" d="M5.24997 11.5C5.24997 5.27908 10.324 0.25 16.5658 0.25C22.8076 0.25 27.8815 5.27908 27.8815 11.5C27.8815 12.9023 27.6229 14.2474 27.1494 15.4887C27.1036 15.6085 27.077 15.6786 27.0586 15.7302C27.0563 15.7369 27.0543 15.7426 27.0526 15.7474C27.0528 15.7492 27.0529 15.751 27.0531 15.7529C27.0571 15.7942 27.0639 15.8505 27.0771 15.9577L27.5846 20.0802C27.6081 20.2704 27.6347 20.4861 27.6411 20.6739C27.6481 20.8817 27.6394 21.2044 27.4844 21.5429C27.291 21.9657 26.9473 22.3015 26.5202 22.4852C26.1781 22.6323 25.8554 22.6336 25.6477 22.6218C25.4601 22.6111 25.245 22.5795 25.0554 22.5516C25.0438 22.5499 25.0323 22.5482 25.0209 22.5466L21.0393 21.9629C20.9287 21.9467 20.8706 21.9383 20.828 21.9333C20.8259 21.933 20.8241 21.9328 20.8223 21.9326C20.8173 21.9343 20.8114 21.9363 20.8046 21.9387C20.7512 21.9572 20.6788 21.9843 20.5547 22.0307C19.3124 22.4961 17.9674 22.75 16.5658 22.75C16.3413 22.75 16.1182 22.7435 15.8968 22.7306C14.7055 25.6664 11.8751 27.75 8.53949 27.75C7.62993 27.75 6.75372 27.5938 5.93684 27.3055C5.80183 27.2578 5.71808 27.2283 5.65666 27.208C5.64552 27.2043 5.63638 27.2014 5.62908 27.1991C5.62699 27.1993 5.62473 27.1995 5.6223 27.1998C5.57942 27.2046 5.52098 27.2125 5.41266 27.2273L1.66916 27.7385C1.26409 27.7938 0.857571 27.6476 0.580596 27.3469C0.303621 27.0461 0.191201 26.629 0.279563 26.2298L1.04374 22.7777C1.0703 22.6578 1.08451 22.593 1.09363 22.5454C1.09415 22.5427 1.09462 22.5402 1.09506 22.5379C1.09278 22.53 1.08991 22.5202 1.08631 22.5083C1.06573 22.4401 1.03546 22.3472 0.986247 22.1966C0.721642 21.3866 0.578965 20.5214 0.578965 19.625C0.578965 16.3424 2.49548 13.4892 5.27234 12.2125C5.2575 11.9767 5.24997 11.7392 5.24997 11.5ZM7.75006 11.5393C8.00959 11.5133 8.27293 11.5 8.53949 11.5C12.9643 11.5 16.5 15.1664 16.5 19.625C16.5 19.835 16.4922 20.0433 16.4768 20.2496C16.5064 20.2499 16.5361 20.25 16.5658 20.25C17.6637 20.25 18.7118 20.0514 19.6778 19.6896C19.6953 19.683 19.7132 19.6763 19.7314 19.6694C19.908 19.6029 20.1164 19.5244 20.3068 19.4844C20.4807 19.4479 20.6293 19.432 20.807 19.431C21.0009 19.4299 21.1981 19.4592 21.3574 19.4828C21.3726 19.485 21.3874 19.4872 21.4019 19.4894L25.059 20.0254L24.5958 16.2631C24.5941 16.2491 24.5923 16.2347 24.5905 16.22C24.5712 16.0656 24.5474 15.8746 24.5518 15.6873C24.5558 15.5155 24.5732 15.3725 24.6104 15.2047C24.6512 15.0212 24.7283 14.82 24.7937 14.6495C24.8005 14.6318 24.8071 14.6145 24.8136 14.5976C25.1803 13.6362 25.3815 12.5929 25.3815 11.5C25.3815 6.67522 21.4423 2.75 16.5658 2.75C11.6892 2.75 7.74997 6.67522 7.74997 11.5C7.74997 11.5131 7.75 11.5262 7.75006 11.5393ZM13.826 21.0416C13.9395 20.5899 14 20.1153 14 19.625C14 16.4897 11.5269 14 8.53949 14C5.55209 14 3.07896 16.4897 3.07896 19.625C3.07896 20.255 3.17908 20.8583 3.36266 21.4203C3.36994 21.4426 3.37741 21.4653 3.38498 21.4883C3.45529 21.7022 3.53497 21.9447 3.56697 22.1486C3.597 22.34 3.60422 22.4872 3.59303 22.6806C3.58116 22.8858 3.53401 23.0969 3.49558 23.269C3.49184 23.2857 3.48819 23.3021 3.48465 23.3181L3.10817 25.0188L5.07438 24.7502C5.08878 24.7483 5.10356 24.7462 5.11868 24.7441C5.27416 24.7226 5.46481 24.6963 5.6477 24.6975C5.82086 24.6987 5.94971 24.7119 6.11954 24.7457C6.29968 24.7816 6.51576 24.8583 6.70752 24.9263C6.72828 24.9336 6.74876 24.9409 6.76887 24.948C7.3228 25.1435 7.91788 25.25 8.53949 25.25C11.039 25.25 13.1784 23.5072 13.8106 21.1016C13.8153 21.0813 13.8204 21.0614 13.826 21.0416Z" fill="white"/>
</svg>
