<svg xmlns="http://www.w3.org/2000/svg" width="200" height="144.944" viewBox="0 0 200 144.944">
  <g id="ExpertHelp" transform="translate(0 -0.026)">
    <path id="Path_3282" data-name="Path 3282" d="M414.759,584.643v34.946H327.206c-9.976,0-18.092-7.839-18.092-17.473s8.116-17.473,18.092-17.473Z" transform="translate(-287.309 -475.964)" fill="#f2f2f2"/>
    <path id="Path_3283" data-name="Path 3283" d="M411.792,617.127a1.345,1.345,0,0,1-1.344,1.344h-89.92a18.414,18.414,0,0,1,0-36.828h89.919a1.344,1.344,0,1,1,0,2.688H320.528a15.726,15.726,0,0,0,0,31.452h89.919a1.345,1.345,0,0,1,1.345,1.344Z" transform="translate(-282.191 -473.77)" fill="#abb2e7"/>
    <path id="Path_3284" data-name="Path 3284" d="M445.469,613.181H351.383a.269.269,0,1,1,0-.538h94.086a.269.269,0,0,1,0,.538Z" transform="translate(-318.019 -496.437)" fill="#ccc"/>
    <path id="Path_3285" data-name="Path 3285" d="M445.469,637.181H351.383a.269.269,0,1,1,0-.538h94.086a.269.269,0,1,1,0,.538Z" transform="translate(-318.019 -513.986)" fill="#ccc"/>
    <path id="Path_3286" data-name="Path 3286" d="M445.469,661.181H351.383a.269.269,0,1,1,0-.538h94.086a.269.269,0,0,1,0,.538Z" transform="translate(-318.019 -531.534)" fill="#ccc"/>
    <path id="Path_3287" data-name="Path 3287" d="M445.469,685.181H351.383a.269.269,0,1,1,0-.538h94.086a.269.269,0,1,1,0,.538Z" transform="translate(-318.019 -549.082)" fill="#ccc"/>
    <path id="Path_3288" data-name="Path 3288" d="M690.039,448.53l-21.926,27.212-68.176-54.933c-7.768-6.259-9.17-17.455-3.125-24.957s17.283-8.514,25.051-2.255Z" transform="translate(-494.923 -333.272)" fill="#f2f2f2"/>
    <path id="Path_3289" data-name="Path 3289" d="M664.87,472.592a1.345,1.345,0,0,1-1.89.2l-70.018-56.417A18.414,18.414,0,1,1,616.069,387.7l70.018,56.418a1.344,1.344,0,1,1-1.687,2.093l-70.018-56.417a15.726,15.726,0,1,0-19.733,24.491L664.667,470.7a1.345,1.345,0,0,1,.2,1.89Z" transform="translate(-489.837 -328.983)" fill="#050038"/>
    <path id="Path_3290" data-name="Path 3290" d="M735.462,470.608,662.2,411.577a.269.269,0,0,1,.337-.419L735.8,470.189a.269.269,0,0,1-.337.419Z" transform="translate(-545.405 -349.071)" fill="#ccc"/>
    <path id="Path_3291" data-name="Path 3291" d="M720.4,489.3l-73.26-59.035a.269.269,0,0,1,.337-.419l73.263,59.032a.269.269,0,0,1-.337.419Z" transform="translate(-534.395 -362.736)" fill="#ccc"/>
    <path id="Path_3292" data-name="Path 3292" d="M705.345,507.985l-73.263-59.032a.269.269,0,1,1,.337-.419l73.263,59.031a.269.269,0,0,1-.337.419Z" transform="translate(-523.385 -376.4)" fill="#ccc"/>
    <path id="Path_3293" data-name="Path 3293" d="M690.287,526.673l-73.263-59.032a.269.269,0,0,1,.337-.419l73.263,59.032a.269.269,0,1,1-.337.419Z" transform="translate(-512.375 -390.065)" fill="#ccc"/>
    <path id="Path_3294" data-name="Path 3294" d="M427.731,718.181H228.269a.269.269,0,1,1,0-.538H427.731a.269.269,0,1,1,0,.538Z" transform="translate(-228 -573.211)" fill="#ccc"/>
    <path id="Path_3295" data-name="Path 3295" d="M325.747,358.379h-3.073l-1.462-11.854h4.536Z" transform="translate(-234.865 -253.373)" fill="#fee6c2"/>
    <path id="Path_3296" data-name="Path 3296" d="M308.332,387.355h5.927v3.732H304.6A3.732,3.732,0,0,1,308.332,387.355Z" transform="translate(-222.719 -283.227)" fill="#050038"/>
    <path id="Path_3297" data-name="Path 3297" d="M208.952,358.379h-3.073l-1.462-11.854h4.536Z" transform="translate(-149.466 -253.373)" fill="#fee6c2"/>
    <path id="Path_3298" data-name="Path 3298" d="M191.538,387.355h5.927v3.732h-9.659A3.732,3.732,0,0,1,191.538,387.355Z" transform="translate(-137.32 -283.227)" fill="#050038"/>
    <path id="Path_3299" data-name="Path 3299" d="M487.471,216.654V215.31a8.669,8.669,0,0,1,8.669-8.669h0a8.669,8.669,0,0,1,8.669,8.669v1.344a6.25,6.25,0,0,1-6.25,6.25H493.72a6.25,6.25,0,0,1-6.25-6.25Z" transform="translate(-417.721 -199.575)" fill="#050038"/>
    <circle id="Ellipse_539" data-name="Ellipse 539" cx="6.602" cy="6.602" r="6.602" transform="translate(71.817 10.586)" fill="#fee6c2"/>
    <path id="Path_3300" data-name="Path 3300" d="M634.488,376.475" transform="translate(-525.217 -323.755)" fill="#ffb8b8"/>
    <path id="Path_3301" data-name="Path 3301" d="M383.931,326.841a2.521,2.521,0,0,1,3.839.451l5.66-1.071,1.49,3.281-8.014,1.4a2.534,2.534,0,0,1-2.974-4.061Z" transform="translate(-341.425 -286.961)" fill="#fee6c2"/>
    <path id="Path_3302" data-name="Path 3302" d="M431.152,283.429l.074.112-9.281,6.114-15.661,5a.943.943,0,0,0-.648,1l.342,2.943a.941.941,0,0,0,1.132.811l14.739-3.159a5.325,5.325,0,0,0,1.982-.872l10.427-7.419a2.682,2.682,0,1,0-3.031-4.425Z" transform="translate(-357.879 -255.48)" fill="#3f53d9"/>
    <path id="Path_3303" data-name="Path 3303" d="M462.91,403.447a1.215,1.215,0,0,1-1.112-.726l-14.089-34.812a.4.4,0,0,0-.755.043L435.46,401.843a1.21,1.21,0,0,1-1.581.777l-3.854-1.445a1.207,1.207,0,0,1-.779-1c-1.734-15.105,13.387-53.234,13.54-53.617l.042-.106,13.784,3.049.029.031c5.5,6,10.02,43.839,10.87,51.364a1.2,1.2,0,0,1-.8,1.276l-3.4,1.2a1.2,1.2,0,0,1-.4.075Z" transform="translate(-375.046 -301.805)" fill="#050038"/>
    <path id="Path_3304" data-name="Path 3304" d="M487.359,297.637c-3.34,0-7.063-.666-8.209-3.414l-.026-.063.036-.059c.9-1.484,2.1-4.016,1.458-4.492-1.266-.936-1.88-2.476-1.826-4.577a11.027,11.027,0,0,1,7.733-10.076h0a34.32,34.32,0,0,1,3.834-.987,6.527,6.527,0,0,1,5.412,1.336,6.593,6.593,0,0,1,2.445,5.073c.047,4.874-.7,11.662-4.546,16.323a1.2,1.2,0,0,1-.708.412A32.855,32.855,0,0,1,487.359,297.637Z" transform="translate(-411.372 -248.711)" fill="#3f53d9"/>
    <path id="Path_3305" data-name="Path 3305" d="M505.789,346.565a2.569,2.569,0,0,1,3.139-1.791,2.525,2.525,0,0,1,.389.144l4.3-3.911,2.989,2.013-6.146,5.438a2.564,2.564,0,0,1-2.907,1.233,2.525,2.525,0,0,1-1.762-3.127Z" transform="translate(-431.044 -297.822)" fill="#fee6c2"/>
    <path id="Path_3306" data-name="Path 3306" d="M524.733,304.445a1.206,1.206,0,0,1-.765-.273l-1.7-1.385a1.21,1.21,0,0,1,.029-1.9l7.108-5.452a.4.4,0,0,0,.076-.563l-4.387-5.8a3.571,3.571,0,0,1,.239-4.6h0a3.561,3.561,0,0,1,4.809-.385l.028.029,4.581,6.56a4.084,4.084,0,0,1-.1,6.5L525.45,304.2a1.212,1.212,0,0,1-.717.243Z" transform="translate(-442.843 -255.652)" fill="#3f53d9"/>
    <path id="Path_3307" data-name="Path 3307" d="M497.965,221.534v-3.276l5.848-2.554,5.576,2.554v3.276a.538.538,0,0,1-.538.538H498.5a.538.538,0,0,1-.538-.538Z" transform="translate(-425.394 -206.202)" fill="#050038"/>
    <path id="Path_3308" data-name="Path 3308" d="M518.134,187.857c-.86-2.752.946-5.907,3.616-7a8.321,8.321,0,0,1,8.117,1.472,13.7,13.7,0,0,1,4.391,7.283,40.8,40.8,0,0,1,1.018,8.573,5.761,5.761,0,1,1-5.521,2.045,7.09,7.09,0,0,0-8.249-11C519.888,189.912,517.86,188.156,518.134,187.857Z" transform="translate(-439.983 -180.357)" fill="#050038"/>
    <path id="Path_3309" data-name="Path 3309" d="M348.711,241.739a28.079,28.079,0,0,1-11.384-2.493,1.2,1.2,0,0,1-.713-1.1v-9.79a1.211,1.211,0,0,1,1.21-1.21H359.6a1.211,1.211,0,0,1,1.21,1.21v9.79a1.2,1.2,0,0,1-.713,1.1h0A28.077,28.077,0,0,1,348.711,241.739Z" transform="translate(-307.417 -214.566)" fill="#f5a041"/>
    <path id="Path_3310" data-name="Path 3310" d="M331.348,207.725a1.21,1.21,0,0,1-.47-.095l-17.267-7.285a1.21,1.21,0,0,1,.041-2.245l17.267-6.55a1.2,1.2,0,0,1,.863,0l17.036,6.55a1.21,1.21,0,0,1,.041,2.241l-17.036,7.285a1.211,1.211,0,0,1-.475.1Z" transform="translate(-290.057 -188.483)" fill="#f5a041"/>
    <circle id="Ellipse_540" data-name="Ellipse 540" cx="1.613" cy="1.613" r="1.613" transform="translate(29.601 22.12)" fill="#050038"/>
    <path id="Path_3311" data-name="Path 3311" d="M349.586,219.407l-17.036,7.285a1.075,1.075,0,0,1-.841,0l-17.267-7.285a1.055,1.055,0,0,1-.514-.452,1.074,1.074,0,0,0,.514,1.527l17.267,7.285a1.075,1.075,0,0,0,.841,0l17.036-7.285a1.075,1.075,0,0,0,.509-1.525A1.056,1.056,0,0,1,349.586,219.407Z" transform="translate(-290.725 -208.581)" opacity="0.2"/>
    <path id="Path_3312" data-name="Path 3312" d="M343.887,233.174a.269.269,0,0,0,.269-.269v-9l8.866-3.23a.269.269,0,1,0,.008-.538l-8.866,3.23a.527.527,0,0,0-.385.155.534.534,0,0,0-.16.383v9a.269.269,0,0,0,.269.269Z" transform="translate(-312.538 -209.448)" fill="#050038"/>
  </g>
</svg>
