<svg xmlns="http://www.w3.org/2000/svg" width="18" height="17.229" viewBox="0 0 18 17.229"><path d="M17.933,11.621A2.436,2.436,0,0,0,19,9.911,2.436,2.436,0,0,0,17.933,8.2a2.841,2.841,0,0,1-.591-.669,2.41,2.41,0,0,1,.09-.951,2.442,2.442,0,0,0-.154-1.967,2.462,2.462,0,0,0-1.839-.746,2.778,2.778,0,0,1-.9-.193,2.5,2.5,0,0,1-.463-.8,2.45,2.45,0,0,0-1.3-1.53,2.4,2.4,0,0,0-1.89.463A2.6,2.6,0,0,1,10,2.2a2.6,2.6,0,0,1-.887-.386,2.39,2.39,0,0,0-1.89-.463,2.45,2.45,0,0,0-1.3,1.53,2.5,2.5,0,0,1-.463.8,2.778,2.778,0,0,1-.9.193,2.462,2.462,0,0,0-1.839.746,2.442,2.442,0,0,0-.154,1.967,2.41,2.41,0,0,1,.09.951,2.841,2.841,0,0,1-.591.669A2.436,2.436,0,0,0,1,9.911a2.436,2.436,0,0,0,1.067,1.71,2.841,2.841,0,0,1,.591.669,2.41,2.41,0,0,1-.09.951,2.442,2.442,0,0,0,.154,1.967,2.462,2.462,0,0,0,1.839.746,2.778,2.778,0,0,1,.9.193,2.5,2.5,0,0,1,.463.8,2.45,2.45,0,0,0,1.3,1.53,2.4,2.4,0,0,0,1.89-.463A2.6,2.6,0,0,1,10,17.626a2.6,2.6,0,0,1,.887.386,3.261,3.261,0,0,0,1.466.527,1.217,1.217,0,0,0,.424-.064,2.45,2.45,0,0,0,1.3-1.53,2.5,2.5,0,0,1,.463-.8,2.778,2.778,0,0,1,.9-.193,2.462,2.462,0,0,0,1.839-.746,2.442,2.442,0,0,0,.154-1.967,2.41,2.41,0,0,1-.09-.951A2.841,2.841,0,0,1,17.933,11.621Zm-4.911-2.97L9.6,12.084a.669.669,0,0,1-.913,0l-1.71-1.723a.636.636,0,1,1,.9-.9l1.26,1.26,2.983-2.983a.644.644,0,0,1,.9,0,.637.637,0,0,1,0,.913Z" transform="translate(-1 -1.31)" fill="#F5A041"/></svg>