<svg width="16" height="16" viewBox="0 0 16 16" fill="none" xmlns="http://www.w3.org/2000/svg">
<mask id="mask0_576_21873" style="mask-type:alpha" maskUnits="userSpaceOnUse" x="0" y="0" width="16" height="16">
<rect width="16" height="16" fill="#D9D9D9"/>
</mask>
<g mask="url(#mask0_576_21873)">
<path d="M2.66671 13.3333C2.30004 13.3333 1.98626 13.2028 1.72537 12.942C1.46404 12.6806 1.33337 12.3666 1.33337 12V3.99996C1.33337 3.63329 1.46404 3.31951 1.72537 3.05863C1.98626 2.79729 2.30004 2.66663 2.66671 2.66663H13.3334C13.7 2.66663 14.014 2.79729 14.2754 3.05863C14.5363 3.31951 14.6667 3.63329 14.6667 3.99996V12C14.6667 12.3666 14.5363 12.6806 14.2754 12.942C14.014 13.2028 13.7 13.3333 13.3334 13.3333H2.66671ZM13.3334 5.33329L8.35004 8.44996C8.29449 8.48329 8.23604 8.50818 8.17471 8.52463C8.11382 8.54151 8.0556 8.54996 8.00004 8.54996C7.94449 8.54996 7.88626 8.54151 7.82537 8.52463C7.76404 8.50818 7.7056 8.48329 7.65004 8.44996L2.66671 5.33329V12H13.3334V5.33329ZM8.00004 7.33329L13.3334 3.99996H2.66671L8.00004 7.33329ZM2.66671 5.49996V4.51663V4.53329V4.52463V5.49996Z" fill="#3F53D9"/>
</g>
</svg>
