<svg xmlns="http://www.w3.org/2000/svg" width="200" height="112.694" viewBox="0 0 200 112.694">
  <g id="Group_1165" data-name="Group 1165" transform="translate(-680 -604.653)">
    <g id="Group_1164" data-name="Group 1164" transform="translate(12 56.347)">
      <ellipse id="Ellipse_573" data-name="Ellipse 573" cx="5.298" cy="0.883" rx="5.298" ry="0.883" transform="translate(846.98 659.012)" fill="#f2f2f2"/>
      <rect id="Rectangle_264" data-name="Rectangle 264" width="0.442" height="9.272" transform="translate(858.018 575.569)" fill="#050038"/>
      <rect id="Rectangle_265" data-name="Rectangle 265" width="2.649" height="91.391" transform="translate(850.954 569.608)" fill="#050038"/>
      <path id="Path_3512" data-name="Path 3512" d="M944.473,223.227H920.218a1.876,1.876,0,0,1-1.862-2.109l3.091-24.724a1.879,1.879,0,0,1,1.862-1.644h18.074a1.879,1.879,0,0,1,1.862,1.644l3.091,24.724a1.876,1.876,0,0,1-1.862,2.109Z" transform="translate(-80.068 353.556)" fill="#3f53d9"/>
      <circle id="Ellipse_574" data-name="Ellipse 574" cx="1.545" cy="1.545" r="1.545" transform="translate(856.693 583.295)" fill="#3f53d9"/>
      <path id="Path_3513" data-name="Path 3513" d="M212.482,538.94c-1.115,3.869-4.372,6.577-7.769,8.878q-.711.482-1.423.942l-.01.006-.067.044-.293.189.053.024h0l-.052-.021a16.2,16.2,0,0,1-5.494-3.141c-1.569-1.548-2.486-3.977-1.636-6.011a3.88,3.88,0,0,1,.42-.755c.069-.1.143-.193.22-.286a4.162,4.162,0,0,1,7.149,1.265c.25-2.324-1.666-4.27-3.51-5.706s-3.941-3-4.3-5.309a4.5,4.5,0,0,1,1.062-3.532c.025-.03.05-.061.076-.09a6.075,6.075,0,0,1,3.9-2.095c2.829-.294,5.576,1.2,7.631,3.17C211.75,529.681,213.75,534.541,212.482,538.94Z" transform="translate(483.235 97.526)" fill="#050038"/>
      <path id="Path_3514" data-name="Path 3514" d="M209.793,541.365a10.325,10.325,0,0,1,1.237,2.729,8.968,8.968,0,0,1,.31,2.648,11.489,11.489,0,0,1-1.5,5.228,16.534,16.534,0,0,1-2.494,3.333q-.711.482-1.423.942l-.01.006-.067.044-.293.189s.106.052.048.028l-.052-.021a9.059,9.059,0,0,0-6.71-9.907c.069-.1.143-.193.22-.286a9.553,9.553,0,0,1,1.578.6,9.365,9.365,0,0,1,4.234,4.082,9.575,9.575,0,0,1,1.043,5.254c.081-.073.162-.148.241-.223a16.788,16.788,0,0,0,3.733-4.855A10.688,10.688,0,0,0,211,546.1a9.66,9.66,0,0,0-1.937-5.22,22.372,22.372,0,0,0-4.241-4.371,25.424,25.424,0,0,0-5.274-3.256.183.183,0,0,1-.092-.235.156.156,0,0,1,.076-.09.136.136,0,0,1,.118.005c.233.107.464.216.693.329a25.706,25.706,0,0,1,5.312,3.5A20.7,20.7,0,0,1,209.793,541.365Z" transform="translate(480.607 90.041)" fill="#fff"/>
      <path id="Path_3515" data-name="Path 3515" d="M196.288,638.25H208.51a.945.945,0,0,1,.938,1.063l-1.557,12.458a.947.947,0,0,1-.938.828h-9.107a.947.947,0,0,1-.938-.828l-1.557-12.458a.945.945,0,0,1,.938-1.063Z" transform="translate(483.329 7.959)" fill="#e9ecff"/>
      <circle id="Ellipse_575" data-name="Ellipse 575" cx="1.53" cy="1.53" r="1.53" transform="translate(717.936 657.594)" fill="#ccc"/>
      <circle id="Ellipse_576" data-name="Ellipse 576" cx="1.53" cy="1.53" r="1.53" transform="translate(814.55 657.594)" fill="#ccc"/>
      <path id="Path_3516" data-name="Path 3516" d="M407.729,513.043H383.767a4.211,4.211,0,0,1-4.206-4.206V492.522a4.211,4.211,0,0,1,4.206-4.206h23.962a4.211,4.211,0,0,1,4.206,4.206v16.315a4.211,4.211,0,0,1-4.206,4.206Z" transform="translate(339.777 124.795)" fill="#e9ecff"/>
      <path id="Path_3517" data-name="Path 3517" d="M553.81,513.621H529.847a4.211,4.211,0,0,1-4.206-4.206V493.1a4.211,4.211,0,0,1,4.206-4.206H553.81a4.211,4.211,0,0,1,4.206,4.206v16.315A4.211,4.211,0,0,1,553.81,513.621Z" transform="translate(225.944 124.345)" fill="#e9ecff"/>
      <path id="Path_3518" data-name="Path 3518" d="M699.89,514.2H675.928a4.211,4.211,0,0,1-4.206-4.206V493.677a4.211,4.211,0,0,1,4.206-4.206H699.89a4.211,4.211,0,0,1,4.206,4.206v16.315a4.211,4.211,0,0,1-4.206,4.208Z" transform="translate(112.111 123.896)" fill="#e9ecff"/>
      <rect id="Rectangle_266" data-name="Rectangle 266" width="105.537" height="22.051" transform="translate(715.642 636.947)" fill="#e9ecff" stroke="#fff" stroke-width="1"/>
      <path id="Path_3519" data-name="Path 3519" d="M349.093,598.67H344.5a4.523,4.523,0,0,1-4.206-4.776v-23.01h8.8Z" transform="translate(370.373 60.454)" fill="#e9ecff"/>
      <path id="Path_3520" data-name="Path 3520" d="M822.391,586.071H817.8V554.716h8.8v25.966C826.6,583.654,824.71,586.071,822.391,586.071Z" transform="translate(-1.722 73.052)" fill="#e9ecff"/>
      <circle id="Ellipse_577" data-name="Ellipse 577" cx="7.52" cy="7.52" r="7.52" transform="translate(705.7 622.161)" fill="#e9ecff" stroke="#fff" stroke-width="1"/>
      <circle id="Ellipse_578" data-name="Ellipse 578" cx="7.52" cy="7.52" r="7.52" transform="translate(815.825 621.906)" fill="#e9ecff" stroke="#fff" stroke-width="1"/>
      <path id="Path_3524" data-name="Path 3524" d="M734.1,488.528a2.325,2.325,0,0,1,.024.365l9.014,6.213,2.4-1.138,2.192,3.4-4.06,2.428a1.766,1.766,0,0,1-2.108-.221l-9.129-8.473a2.317,2.317,0,1,1,1.663-2.577Z" transform="translate(67.097 126.167)" fill="#fee6c2"/>
      <path id="Path_3525" data-name="Path 3525" d="M791.953,511.724a.992.992,0,0,1,.54-.627l4.533-2.077a2.759,2.759,0,1,1,3.023,4.616L796.3,516.95a.993.993,0,0,1-1.491-.2l-2.737-4.2a.992.992,0,0,1-.122-.818Z" transform="translate(18.452 109.012)" fill="#61a8f0"/>
      <path id="Path_3526" data-name="Path 3526" d="M733.346,487.98H733.3l-.124-1.71c-.04-.547-.393-.966-.79-.938h0l-2.628.19c-.4.029-1.126.527-1.087,1.073l.032.44.647,8.939c.04.547.833.934,1.23.906h0l2.628-.19c.4-.029.686-.495.646-1.042h0l-.467-6.453h.045Z" transform="translate(67.734 127.118)" fill="#3f3d56"/>
      <path id="Path_3527" data-name="Path 3527" d="M735.276,487.194l.678,9.366c.03.408-.187.756-.483.778l-2.641.191c-.3.021-.56-.292-.59-.7l-.678-9.366c-.029-.408.187-.756.483-.778l.32-.023a.408.408,0,0,0,.173.448.2.2,0,0,0,.1.019l1.506-.109c.141-.01.243-.176.229-.37a.47.47,0,0,0-.028-.131l.343-.025C734.982,486.473,735.246,486.786,735.276,487.194Z" transform="translate(65.482 126.216)" fill="#fff"/>
      <path id="Path_3528" data-name="Path 3528" d="M430.486,367.681l-.871-2.562,9.469-4.579,1.286,3.782Z" transform="translate(333.223 267.356)" fill="#fee6c2"/>
      <path id="Path_3529" data-name="Path 3529" d="M560.4,564.494l-2.809-8.262.1-.036A3.4,3.4,0,0,1,562,558.318h0l1.715,5.046Z" transform="translate(201.046 72.042)" fill="#2f2e41"/>
      <path id="Path_3530" data-name="Path 3530" d="M635.914,545.1a11.556,11.556,0,0,1-5.87-1.229L618.91,536.3l-13,4.814a1.439,1.439,0,0,1-1.791-.806l-.637-1.533a1.428,1.428,0,0,1,.737-1.86l12.421-5.578a7.26,7.26,0,0,1,4.748-.411l17.243,4.394,4.558,5.413-.051.07A9.563,9.563,0,0,1,635.914,545.1Z" transform="translate(165.376 91.771)" fill="#050038"/>
      <circle id="Ellipse_579" data-name="Ellipse 579" cx="5.422" cy="5.422" r="5.422" transform="translate(809.951 603.403)" fill="#fee6c2"/>
      <path id="Path_3531" data-name="Path 3531" d="M758.582,518.958l-8.726-6.494,5.951-4.229c-.17-.548-.925-3.68,3.2-5.815a15.7,15.7,0,0,0,2.8-1.729,4.188,4.188,0,0,1,6.748,4.4c-.861,2.8-2.233,6.508-3.878,8.282a51.355,51.355,0,0,1-6.033,5.539Z" transform="translate(51.225 115.951)" fill="#3f53d9"/>
      <path id="Path_3532" data-name="Path 3532" d="M436.754,377.966l-.871-2.562,9.469-4.579,1.286,3.782Z" transform="translate(328.338 259.341)" fill="#fee6c2"/>
      <path id="Path_3533" data-name="Path 3533" d="M566.669,574.779l-2.809-8.262.1-.036a3.4,3.4,0,0,1,4.309,2.122h0l1.715,5.046Z" transform="translate(196.162 64.026)" fill="#2f2e41"/>
      <path id="Path_3534" data-name="Path 3534" d="M642.182,555.381a11.556,11.556,0,0,1-5.87-1.229l-11.134-7.575-13,4.814a1.439,1.439,0,0,1-1.791-.806l-.637-1.533a1.428,1.428,0,0,1,.737-1.86l12.421-5.578a7.26,7.26,0,0,1,4.748-.411l17.244,4.4,4.558,5.413-.051.07A9.564,9.564,0,0,1,642.182,555.381Z" transform="translate(160.492 83.755)" fill="#050038"/>
      <path id="Path_3535" data-name="Path 3535" d="M730.768,521.336a2.33,2.33,0,0,1,.178.32l10.806,1.755,1.685-2.058,3.438,2.137-2.629,3.932a1.766,1.766,0,0,1-2,.7l-11.878-3.748a2.317,2.317,0,1,1,.4-3.041Z" transform="translate(69.402 99.862)" fill="#fee6c2"/>
      <path id="Path_3536" data-name="Path 3536" d="M795.119,510.868a.992.992,0,0,1,.22-.8l3.207-3.817a2.759,2.759,0,1,1,4.708,2.877l-1.968,4.6a.993.993,0,0,1-1.434.455l-4.274-2.628a.992.992,0,0,1-.459-.687Z" transform="translate(15.964 111.847)" fill="#3f53d9"/>
      <path id="Path_3537" data-name="Path 3537" d="M791.3,446.558a11.836,11.836,0,0,0,2.489-7.078,7.307,7.307,0,0,1-2.474,1.2,4.319,4.319,0,0,1-2.881-.1,3.412,3.412,0,0,1-1.856-3.4,4.2,4.2,0,0,1,2.326-3.214,5.488,5.488,0,0,1,4.032-.244,4.794,4.794,0,0,1,5.151-.687,6.364,6.364,0,0,1,3.165,5.253,18.773,18.773,0,0,1-.906,6.315l-.061.234c-.169.644-.66,1.879-.66,1.879s-2.851-.563-3.984-.923a20.2,20.2,0,0,1-4.341.77Z" transform="translate(22.621 168.24)" fill="#2f2e41"/>
      <path id="Path_3538" data-name="Path 3538" d="M737.427,496.749l-2.323.168a.221.221,0,0,1-.032-.44l2.323-.168a.221.221,0,1,1,.032.44Z" transform="translate(62.905 118.567)" fill="#3f3d56"/>
      <path id="Path_3539" data-name="Path 3539" d="M737.787,501.736l-2.323.168a.221.221,0,1,1-.032-.44l2.323-.168a.221.221,0,0,1,.032.44Z" transform="translate(62.624 114.681)" fill="#3f3d56"/>
      <path id="Path_3540" data-name="Path 3540" d="M738.148,506.723l-2.323.168a.221.221,0,1,1-.032-.44l2.323-.168a.221.221,0,0,1,.032.44Z" transform="translate(62.343 110.795)" fill="#3f3d56"/>
      <path id="Path_3541" data-name="Path 3541" d="M346.779,703.692H147.221a.221.221,0,0,1,0-.442H346.779a.221.221,0,0,1,0,.442Z" transform="translate(521 -42.692)" fill="#3f3d56"/>
      <path id="Path_3542" data-name="Path 3542" d="M542.062,290.429h-22.3a1.989,1.989,0,0,1-1.987-1.987V269.237a1.989,1.989,0,0,1,1.987-1.987h22.3a1.989,1.989,0,0,1,1.987,1.987v19.2a1.989,1.989,0,0,1-1.987,1.987Zm-22.3-22.737a1.547,1.547,0,0,0-1.545,1.545v19.2a1.547,1.547,0,0,0,1.545,1.545h22.3a1.547,1.547,0,0,0,1.545-1.545v-19.2a1.547,1.547,0,0,0-1.545-1.545Z" transform="translate(232.07 297.06)" fill="#abb2e7"/>
      <path id="Path_3543" data-name="Path 3543" d="M550.7,297.969H534.923a1.878,1.878,0,0,1-1.876-1.876V282.626a1.878,1.878,0,0,1,1.876-1.876H550.7a1.879,1.879,0,0,1,1.876,1.876v13.466a1.879,1.879,0,0,1-1.876,1.876Z" transform="translate(220.173 286.542)" fill="#e9ecff"/>
      <circle id="Ellipse_580" data-name="Ellipse 580" cx="1.104" cy="1.104" r="1.104" transform="translate(761.991 559.233)" fill="#050038"/>
      <path id="Path_3544" data-name="Path 3544" d="M423.619,57.287,421.3,53.41l-2.307,3.876-.379-.226,2.685-4.512L424,57.06Z" transform="translate(341.796 507.357)" fill="#050038"/>
    </g>
    <rect id="Rectangle_267" data-name="Rectangle 267" width="8" height="8" rx="2" transform="translate(773 630)" fill="#fff"/>
    <circle id="Ellipse_582" data-name="Ellipse 582" cx="4.5" cy="4.5" r="4.5" transform="translate(767 625)" fill="#f5a041"/>
  </g>
</svg>
