<svg id="StillHaveQuestions" xmlns="http://www.w3.org/2000/svg" width="200" height="140.944" viewBox="0 0 200 140.944">
  <path id="Path_3549" data-name="Path 3549" d="M10.892,0A10.892,10.892,0,1,1,0,10.892,10.892,10.892,0,0,1,10.892,0Z" transform="translate(91.252 118.862)" fill="#f5a041"/>
  <path id="Path_3313" data-name="Path 3313" d="M439.25,328.2c6.093-1.83,12.571-3.738,17.4-8.089,4.318-3.887,7.234-9.824,5.445-15.654s-7.133-9.7-12.654-11.627a51.918,51.918,0,0,0-9.682-2.178c-3.56-.518-7.136-.943-10.709-1.352q-21.707-2.483-43.577-3.033c-7.194-.181-14.387-.177-21.583-.072-6.426.093-13.194.091-19.155-2.64-4.636-2.124-8.843-5.988-10.135-11.065-1.491-5.861,1.259-11.83,5.2-16.075a42.137,42.137,0,0,1,7.017-5.853c2.72-1.879,5.535-3.624,8.411-5.254a117.122,117.122,0,0,1,17.7-8.161c3.018-1.1,6.081-2.044,9.17-2.917a78.467,78.467,0,0,0,7.746-2.481c4.874-1.942,9.509-5.233,10.748-10.627,1.174-5.112-.806-10.662-4.277-14.46-4.016-4.394-10.072-6.32-15.878-6.632-6.518-.35-12.886,1.281-19.012,3.352-6.534,2.208-12.928,4.747-19.6,6.536a131.876,131.876,0,0,1-20.172,3.75,54.724,54.724,0,0,1-10.124.484,12.241,12.241,0,0,1-7.68-3.05,7.6,7.6,0,0,1-2.471-6.543c.066-.451.751-.259.685.189-.443,3.02,1.61,5.8,4.14,7.229,2.924,1.648,6.482,1.65,9.737,1.461a127.349,127.349,0,0,0,20.958-3.03,168.432,168.432,0,0,0,19.819-6.118c6.193-2.243,12.525-4.431,19.141-4.917,5.741-.421,11.78.415,16.781,3.415a18.564,18.564,0,0,1,8.658,12.08,14,14,0,0,1-4.12,13.335c-3.865,3.563-9.163,5.086-14.1,6.489a129.2,129.2,0,0,0-18.325,6.559,115.038,115.038,0,0,0-17.237,9.691c-5.267,3.6-10.466,8.129-12.132,14.55a13.4,13.4,0,0,0,.666,8.989,16.428,16.428,0,0,0,5.271,6.255c5.285,3.889,11.946,4.687,18.33,4.767,7.17.089,14.34-.153,21.512-.035q21.925.36,43.761,2.669,5.471.579,10.929,1.28A98.828,98.828,0,0,1,445.635,291c5.721,1.328,11.288,3.881,14.844,8.732a13.808,13.808,0,0,1,1.176,15.1c-2.731,5.373-7.845,8.79-13.277,11.035a94.211,94.211,0,0,1-8.939,3.018.355.355,0,0,1-.189-.685Z" transform="translate(-272.038 -188.161)" fill="#e9ecff"/>
  <circle id="Ellipse_542" data-name="Ellipse 542" cx="5.683" cy="5.683" r="5.683" transform="translate(24.126 10.773)" fill="#e9ecff"/>
  <circle id="Ellipse_543" data-name="Ellipse 543" cx="5.683" cy="5.683" r="5.683" transform="translate(63.549 21.547)" fill="#e9ecff"/>
  <circle id="Ellipse_544" data-name="Ellipse 544" cx="5.683" cy="5.683" r="5.683" transform="translate(96.935 0)" fill="#e9ecff"/>
  <circle id="Ellipse_545" data-name="Ellipse 545" cx="5.683" cy="5.683" r="5.683" transform="translate(117.771 24.151)" fill="#f2f2f2"/>
  <circle id="Ellipse_546" data-name="Ellipse 546" cx="5.683" cy="5.683" r="5.683" transform="translate(89.595 52.091)" fill="#e9ecff"/>
  <circle id="Ellipse_547" data-name="Ellipse 547" cx="5.683" cy="5.683" r="5.683" transform="translate(53.841 65.587)" fill="#e9ecff"/>
  <circle id="Ellipse_548" data-name="Ellipse 548" cx="5.683" cy="5.683" r="5.683" transform="translate(91.726 86.661)" fill="#f2f2f2"/>
  <circle id="Ellipse_549" data-name="Ellipse 549" cx="5.683" cy="5.683" r="5.683" transform="translate(132.452 98.499)" fill="#f2f2f2"/>
  <circle id="Ellipse_550" data-name="Ellipse 550" cx="5.683" cy="5.683" r="5.683" transform="translate(180.044 95.895)" fill="#e9ecff"/>
  <path id="Path_3314" data-name="Path 3314" d="M503.542,220.37a31.519,31.519,0,0,0-31.2,30.974c0,.157,0,1.262,0,2.707a7.991,7.991,0,0,0,7.988,7.99h0a8,8,0,0,0,7.994-8v-1.707a15.154,15.154,0,1,1,23.327,12.757h0s-11.372,7.321-14.839,17.364h0a22.257,22.257,0,0,0-.917,6.338c0,.882.052,8.6.152,14.864a8.237,8.237,0,0,0,8.237,8.1h0a8.239,8.239,0,0,0,8.238-8.29c-.035-5.737-.054-12.417-.054-12.9,0-6.167,5.949-12.311,10.836-16.318a32.866,32.866,0,0,0,11.3-17.995,20.544,20.544,0,0,0,.592-4.459,31.432,31.432,0,0,0-31.659-31.431Z" transform="translate(-402.565 -204.268)" fill="#f5a041"/>
  <path id="Path_3315" data-name="Path 3315" d="M377.38,745.813H177.944a.282.282,0,1,1,0-.564H377.38a.282.282,0,1,1,0,.564Z" transform="translate(-177.662 -604.869)" fill="#3f3d56"/>
  <circle id="Ellipse_551" data-name="Ellipse 551" cx="7.103" cy="7.103" r="7.103" transform="translate(141.699 50.433)" fill="#050038"/>
  <path id="Path_3316" data-name="Path 3316" d="M559.2,546.038h-2.9l-1.381-11.2H559.2Z" transform="translate(-423.527 -408.203)" fill="#fee6c2"/>
  <path id="Path_3317" data-name="Path 3317" d="M540.634,578.626h5.6v3.525h-9.123a3.525,3.525,0,0,1,3.523-3.525Z" transform="translate(-409.934 -441.62)" fill="#2f2e41"/>
  <path id="Path_3318" data-name="Path 3318" d="M654.2,546.038h-2.9l-1.381-11.2H654.2Z" transform="translate(-496.034 -408.203)" fill="#fee6c2"/>
  <path id="Path_3319" data-name="Path 3319" d="M635.634,578.626h5.6v3.525h-9.123a3.525,3.525,0,0,1,3.523-3.525Z" transform="translate(-482.44 -441.62)" fill="#2f2e41"/>
  <circle id="Ellipse_552" data-name="Ellipse 552" cx="5.815" cy="5.815" r="5.815" transform="translate(141.907 53.05)" fill="#fee6c2"/>
  <path id="Path_3320" data-name="Path 3320" d="M749.169,451.281l2.6-5.979a7.431,7.431,0,0,0-1.646-8.429,7.537,7.537,0,0,0-.727-.632,7.325,7.325,0,0,0-4.5-1.556,7.618,7.618,0,0,0-3.173.706c-.085.038-.168.078-.253.118-.163.078-.324.163-.481.251a7.5,7.5,0,0,0-3.717,5.654l-1.148,9.623c-.289.755-10.593,28.032-6.99,48.857a1.058,1.058,0,0,0,.9.869l3.654.5a1.065,1.065,0,0,0,1.186-.836L741,471.206a.829.829,0,0,1,1.61-.054l8.661,30.729a1.059,1.059,0,0,0,1.021.777,1.212,1.212,0,0,0,.206-.019l4.463-.859a1.059,1.059,0,0,0,.86-1.139C757.179,493.323,753.693,456.686,749.169,451.281Z" transform="translate(-597.979 -367.839)" fill="#3f53d9"/>
  <path id="Path_3321" data-name="Path 3321" d="M706.05,414.548a2.381,2.381,0,0,0,2.508,2.653l3.251,7.812,2.459-3.645-3.464-6.859a2.394,2.394,0,0,0-4.754.04Z" transform="translate(-580.927 -350.843)" fill="#fee6c2"/>
  <path id="Path_3322" data-name="Path 3322" d="M791.507,507.113a2.381,2.381,0,0,0,2-3.058l6.839-4.981-4.118-1.542-5.864,4.967a2.394,2.394,0,0,0,1.147,4.614Z" transform="translate(-644.107 -415.805)" fill="#fee6c2"/>
  <path id="Path_3323" data-name="Path 3323" d="M726.007,450.044a4.042,4.042,0,0,1-.781-.077,3.861,3.861,0,0,1-2.829-2.277l-4.554-5.553a1.066,1.066,0,0,1,.263-1.582l3.24-2.006a1.066,1.066,0,0,1,1.472.353l3.21,5.288,6.147-4.543a2.3,2.3,0,0,1,2.678,3.685l-6.135,5.6A3.848,3.848,0,0,1,726.007,450.044Z" transform="translate(-589.756 -370.667)" fill="#3f53d9"/>
  <path id="Path_3324" data-name="Path 3324" d="M810.532,463.993h-.025a1.068,1.068,0,0,1-.784-.372l-2.881-3.361a1.065,1.065,0,0,1,.218-1.58l5.394-3.6-4.887-5.875a2.3,2.3,0,0,1,3.525-2.885l5.939,5.8a3.913,3.913,0,0,1-.87,6.379l-4.854,5.151A1.067,1.067,0,0,1,810.532,463.993Z" transform="translate(-657.671 -376.264)" fill="#3f53d9"/>
  <path id="Path_3325" data-name="Path 3325" d="M784.937,441.277a1.1,1.1,0,0,1-.138-.009,1.056,1.056,0,0,1-.879-.727l-2.165-6.637a.73.73,0,0,1,.377-.882l.07-.033.191-.089a7.714,7.714,0,0,1,3.221-.716,7.418,7.418,0,0,1,4.063,1.221.741.741,0,0,1,.213,1.017l-4.061,6.362a1.055,1.055,0,0,1-.892.493Z" transform="translate(-638.693 -365.931)" fill="#e6e6e6"/>
  <circle id="Ellipse_553" data-name="Ellipse 553" cx="2.324" cy="2.324" r="2.324" transform="translate(152.078 49.716)" fill="#050038"/>
  <path id="Path_3326" data-name="Path 3326" d="M776.267,361.365h0a6.156,6.156,0,0,0-6.156,6.156v2.6h3.2l1.532-2.6.46,2.6h9.722l-2.6-2.6A6.156,6.156,0,0,0,776.267,361.365Z" transform="translate(-629.833 -311.88)" fill="#050038"/>
  <path id="Path_3327" data-name="Path 3327" d="M834.809,357.39a3.587,3.587,0,0,1,3.9-2.461,4.971,4.971,0,0,1,3.35,2.768,27.265,27.265,0,0,1,1.489,4.245,7.688,7.688,0,0,0,2.319,3.785,3.451,3.451,0,0,0,4.165.224,4.764,4.764,0,0,1-8.874,1.7,10.3,10.3,0,0,1-.954-3.611,7.892,7.892,0,0,0-1.151-3.538,2.926,2.926,0,0,0-3.268-1.217Z" transform="translate(-679.211 -306.942)" fill="#050038"/>
  <path id="Path_3328" data-name="Path 3328" d="M482.222,300.2h0a7.991,7.991,0,0,1-7.99-7.988c0-1.447,0-2.552,0-2.709a31.137,31.137,0,0,1,3.637-14.185,31.208,31.208,0,0,0-6,17.973c0,.157,0,1.262,0,2.707a7.991,7.991,0,0,0,7.988,7.99h0a8,8,0,0,0,7.692-5.822,7.961,7.961,0,0,1-5.328,2.034Z" transform="translate(-402.204 -246.207)" fill="#3f3d56"/>
  <path id="Path_3329" data-name="Path 3329" d="M566.906,279.211a15.155,15.155,0,0,1,13.179,21.171,15.153,15.153,0,1,0-25.436-15.861,15.123,15.123,0,0,1,12.257-5.31Z" transform="translate(-465.387 -246.273)" fill="#3f3d56"/>
  <path id="Path_3330" data-name="Path 3330" d="M582.122,486.249h0a8.237,8.237,0,0,1-8.237-8.1c-.1-6.261-.152-13.979-.152-14.862a22.258,22.258,0,0,1,.917-6.338h0a22.5,22.5,0,0,1,1.3-3.007,26.054,26.054,0,0,0-3.669,6.8h0a22.256,22.256,0,0,0-.917,6.338c0,.882.052,8.6.152,14.864a8.237,8.237,0,0,0,8.237,8.1h0a8.24,8.24,0,0,0,7.907-5.928A8.207,8.207,0,0,1,582.122,486.249Z" transform="translate(-478.145 -382.532)" fill="#3f3d56"/>
  <path id="Path_3331" data-name="Path 3331" d="M126.539,546.493h2.9l1.381-11.2h-4.284Z" transform="translate(-96.577 -408.55)" fill="#fee6c2"/>
  <path id="Path_3332" data-name="Path 3332" d="M0,0H9.123V3.525h-5.6A3.525,3.525,0,0,1,0,0Z" transform="translate(38.462 140.638) rotate(179.997)" fill="#050038"/>
  <path id="Path_3333" data-name="Path 3333" d="M82.539,546.493h2.9l1.381-11.2H82.538Z" transform="translate(-62.995 -408.55)" fill="#fee6c2"/>
  <path id="Path_3334" data-name="Path 3334" d="M0,0H9.123V3.525h-5.6A3.525,3.525,0,0,1,0,0Z" transform="translate(28.044 140.638) rotate(179.997)" fill="#050038"/>
  <path id="Path_3335" data-name="Path 3335" d="M258.4,595.194l-2.835-.149a1.107,1.107,0,0,1-1.046-1.176l3.389-37.521,15.606,4.211,1.5-.41-4.7,33.216a1.112,1.112,0,0,1-1.032.934l-3.057.142a1.107,1.107,0,0,1-1.168-1.135l.554-19.936a.369.369,0,0,0-.73-.085l-5.341,21.029a1.1,1.1,0,0,1-1.082.882Z" transform="translate(-236.317 -460.695)" fill="#050038"/>
  <circle id="Ellipse_554" data-name="Ellipse 554" cx="5.815" cy="5.815" r="5.815" transform="translate(24.668 53.322)" fill="#fee6c2"/>
  <path id="Path_3336" data-name="Path 3336" d="M265.479,444.587l.639,13.8.231,5.019a1.1,1.1,0,0,0,.728.989l15,5.432a1.059,1.059,0,0,0,.379.066,1.1,1.1,0,0,0,1.1-1.134l-.615-24.806a8.744,8.744,0,0,0-7.279-8.448c-.145-.022-.293-.044-.44-.064a8.583,8.583,0,0,0-6.906,2.235A8.817,8.817,0,0,0,265.479,444.587Z" transform="translate(-244.678 -368.364)" fill="#3f53d9"/>
  <path id="Path_3337" data-name="Path 3337" d="M345.364,534.951a2.383,2.383,0,0,1-1.271-3.6l-5.086-6.762,4.388-.272,4.156,6.463a2.394,2.394,0,0,1-2.188,4.176Z" transform="translate(-300.805 -436.244)" fill="#fee6c2"/>
  <path id="Path_3338" data-name="Path 3338" d="M323.374,474.892a1.1,1.1,0,0,1-.6-.6l-7.662-18.254a2.951,2.951,0,1,1,5.442-2.284l7.662,18.254a1.108,1.108,0,0,1-.592,1.449l-3.4,1.428a1.1,1.1,0,0,1-.847,0Z" transform="translate(-282.39 -381.014)" fill="#3f53d9"/>
  <path id="Path_3339" data-name="Path 3339" d="M298.086,498.716l7.359-14.09a1.155,1.155,0,0,1,1.557-.489l10.681,5.578a1.155,1.155,0,0,1,.489,1.557l-7.359,14.09a1.155,1.155,0,0,1-1.557.489l-10.681-5.578a1.155,1.155,0,0,1-.489-1.557Z" transform="translate(-269.473 -405.482)" fill="#050038"/>
  <path id="Path_3340" data-name="Path 3340" d="M284.741,500.462a2.383,2.383,0,0,0-3.674-1.056l-7.051-4.677-.012,4.4,6.7,3.768a2.394,2.394,0,0,0,4.039-2.431Z" transform="translate(-251.193 -413.666)" fill="#fee6c2"/>
  <path id="Path_3341" data-name="Path 3341" d="M254.2,462.767l-5.762-4.565a4.064,4.064,0,0,1-1.852-6.425l5.232-6.857a2.391,2.391,0,0,1,4.056,2.435l-4.14,6.772,6.084,2.886a1.107,1.107,0,0,1,.461,1.591l-2.456,3.887a1.109,1.109,0,0,1-.75.5h-.018a1.112,1.112,0,0,1-.855-.224Z" transform="translate(-229.562 -374.982)" fill="#3f53d9"/>
  <path id="Path_3342" data-name="Path 3342" d="M278.629,379.618a.505.505,0,0,1,.44-.667,1.167,1.167,0,0,1,.823.406,3.276,3.276,0,0,0,.727.624.626.626,0,0,0,.823-.149,1.145,1.145,0,0,0-.044-.889,8.739,8.739,0,0,1-.386-2.313,4.073,4.073,0,0,1,.582-2.474,3.273,3.273,0,0,1,2.8-1.193,18.854,18.854,0,0,1,3.151.558,1.058,1.058,0,0,0,1.03-.173,1.328,1.328,0,0,0,.053-1.185,8.228,8.228,0,0,0-1.247-2.972,4.475,4.475,0,0,0-2.856-1.608,6.852,6.852,0,0,0-3.188.362,8.547,8.547,0,0,0-4.187,2.917,6.922,6.922,0,0,0-1.321,5.114,6.314,6.314,0,0,0,2.341,3.991Z" transform="translate(-252.54 -316.586)" fill="#050038"/>
  <path id="Path_3343" data-name="Path 3343" d="M571.486,680.587a10.89,10.89,0,0,1-4.042-16.927,10.891,10.891,0,1,0,14.815,15.74,10.885,10.885,0,0,1-10.773,1.187Z" transform="translate(-471.742 -542.598)" fill="#3f3d56"/>
</svg>
