<svg xmlns="http://www.w3.org/2000/svg" width="200.006" height="129.874" viewBox="0 0 200.006 129.874">
  <g id="subscribeNowCta" transform="translate(0.001 0.001)">
    <path id="Path_3552" data-name="Path 3552" d="M880.07,377.444A20.511,20.511,0,0,1,861.135,397.9c-.172.013-.349.026-.525.034V378.462a1.3,1.3,0,0,0-.484-1.015.326.326,0,0,0-.058-.047.482.482,0,0,0-.06-.042,1.315,1.315,0,0,0-1.254-.092l-.218-.479a1.843,1.843,0,0,1,.76-.166l-14.979-12.9c.116-.132.237-.26.358-.389a20.513,20.513,0,0,1,35.4,14.116Z" transform="translate(-680.07 -316.469)" fill="#e9ecff"/>
    <path id="Path_3553" data-name="Path 3553" d="M239.362,439.811a2.653,2.653,0,0,1,2.559-3.162l11.824-14.075,2.952,3.774-12.05,13.1a2.667,2.667,0,0,1-5.284.364Z" transform="translate(-234.162 -364.849)" fill="#fee6c2"/>
    <path id="Path_3554" data-name="Path 3554" d="M399.106,418.95a2.774,2.774,0,0,0-.219.377l-12.91,1.845-1.96-2.489-4.143,2.468,3.894,6.072,15.745-4.641a2.76,2.76,0,1,0-.407-3.631Z" transform="translate(-337.76 -361.312)" fill="#fee6c2"/>
    <path id="Path_3555" data-name="Path 3555" d="M149.426,373.312l2.285,2.275,9.861-7.729L158.2,364.5Z" transform="translate(-110.132 -268.647)" fill="#fee6c2"/>
    <path id="Path_3556" data-name="Path 3556" d="M0,0H10.132V3.915H3.915A3.915,3.915,0,0,1,0,0Z" transform="translate(43.873 113.447) rotate(-135.123)" fill="#050038"/>
    <path id="Path_3557" data-name="Path 3557" d="M103.245,446.127h3.224L108,433.692h-4.758Z" transform="translate(-76.094 -319.644)" fill="#fee6c2"/>
    <path id="Path_3558" data-name="Path 3558" d="M0,0H10.132V3.915H3.915A3.915,3.915,0,0,1,0,0Z" transform="translate(36.591 129.477) rotate(179.997)" fill="#050038"/>
    <path id="Path_3559" data-name="Path 3559" d="M309.088,514.023l-3.672-27.082a33.911,33.911,0,0,1,.526-12.285c.754-3.238,1.772-5.48,3.026-6.665a1.241,1.241,0,0,1,.721-.329l12.124-1.263a1.237,1.237,0,0,1,1.186.593l.4.664a1.234,1.234,0,0,1,.116.256l2.563,7.947a.951.951,0,0,0,.476.559c4.036,2.061,17.146,9.016,16.4,12.018-.7,2.82-7.3,7.392-9.311,8.726a1.225,1.225,0,0,1-1.378-.01l-3.33-2.278a1.234,1.234,0,0,1-.035-2.012l2.3-1.692a.96.96,0,0,0-.252-1.679l-12.333-4.327a.96.96,0,0,0-1.274.828l-2.274,27.792a1.237,1.237,0,0,1-1.168,1.132l-3.518.176h-.064a1.226,1.226,0,0,1-1.221-1.068Z" transform="translate(-282.639 -397.144)" fill="#050038"/>
    <circle id="Ellipse_581" data-name="Ellipse 581" cx="6.459" cy="6.459" r="6.459" transform="translate(25.551 33.915)" fill="#fee6c2"/>
    <path id="Path_3560" data-name="Path 3560" d="M305.152,409.669,300.4,392.322l.081-.055c.1-.069,10.349-6.835,22.347-1.382l.217.125-2.817,18a1.784,1.784,0,0,1-1.7,1.519l-11.592.446h-.07a1.775,1.775,0,0,1-1.718-1.312Z" transform="translate(-279.183 -339.928)" fill="#3f53d9"/>
    <path id="Path_3561" data-name="Path 3561" d="M287.762,413.7l-3.96-4.553a1.232,1.232,0,0,1-.028-1.586l4.139-5.113,3.178.867,1.685,5.9L289.7,413.6a1.227,1.227,0,0,1-.946.525h-.066A1.225,1.225,0,0,1,287.762,413.7Z" transform="translate(-266.728 -350.018)" fill="#3f53d9"/>
    <path id="Path_3562" data-name="Path 3562" d="M371.713,408.235a1.227,1.227,0,0,1-.946-.525l-3.072-4.388,1.477-6.207,2.926-.8.546.26,4.052,5.1a1.232,1.232,0,0,1-.028,1.586l-3.96,4.553a1.225,1.225,0,0,1-.93.424Z" transform="translate(-328.784 -345.497)" fill="#3f53d9"/>
    <path id="Path_3563" data-name="Path 3563" d="M576.823,292.379a.258.258,0,0,1-.063.179.263.263,0,0,1-.371.029l-.881-.76-14.979-12.9-42.011-36.2a1.32,1.32,0,0,0-1.72,0l-56.575,49.151-.51.442a.254.254,0,0,1-.066.042.263.263,0,0,1-.134.021.27.27,0,0,1-.171-.087.262.262,0,0,1,.024-.371l.071-.063,57.016-49.532a1.853,1.853,0,0,1,2.409,0l42.025,36.208,15.844,13.653a.267.267,0,0,1,.092.193Z" transform="translate(-396.282 -231.674)"/>
    <path id="Path_3564" data-name="Path 3564" d="M536.884,271.535l-.692-1.9-2.383-6.574L528.677,248.9l-5.738-15.823-10.348-28.54a2.239,2.239,0,0,0-2.864-1.339l-59.827,21.7a2.238,2.238,0,0,0-1.338,2.864l14.671,40.46.25.692,15.4,6.979,4.328,1.962.7.318,18.326,8.307.71-.258,12.02-4.357,18.132-6.574,2.443-.886a2.24,2.24,0,0,0,1.341-2.864Z" transform="translate(-388.286 -203.065)" fill="#e9ecff"/>
    <path id="Path_3565" data-name="Path 3565" d="M573.138,329.2a3.293,3.293,0,0,0-4.213-1.97l-23.672,8.586-11.431,4.144a3.287,3.287,0,1,0,2.24,6.18l9.191-3.332,25.915-9.4a3.293,3.293,0,0,0,1.97-4.213Z" transform="translate(-449.627 -294.434)" fill="#fff"/>
    <path id="Path_3566" data-name="Path 3566" d="M588.985,372.923a3.293,3.293,0,0,0-4.213-1.97l-4.01,1.454-23.83,8.641-7.263,2.632a3.288,3.288,0,1,0,2.24,6.182l5.023-1.822,30.083-10.908c.068-.024.134-.053.2-.082a3.287,3.287,0,0,0,1.77-4.129Z" transform="translate(-461.306 -326.658)" fill="#fff"/>
    <path id="Path_3567" data-name="Path 3567" d="M605.01,417.1a3.29,3.29,0,0,0-4.21-1.97l-11.247,4.079-8.707,3.158-12.1,4.386-3.05,1.107a3.294,3.294,0,0,0-2.138,3.529,3.248,3.248,0,0,0,.158.65L568.042,434l.7-.255h.005l21.96-7.963,12.33-4.47a3.29,3.29,0,0,0,1.97-4.213Z" transform="translate(-473.118 -359.22)" fill="#fff"/>
    <path id="Path_3568" data-name="Path 3568" d="M571.557,286.223a3.293,3.293,0,0,0-4.213-1.97l-13.6,4.928a3.288,3.288,0,1,0,2.24,6.182l4.3-1.559,2.848-1.033,6.448-2.338A3.29,3.29,0,0,0,571.557,286.223Z" transform="translate(-464.313 -262.757)" fill="#fff"/>
    <path id="Path_3569" data-name="Path 3569" d="M649.24,317.2H585.6a2.236,2.236,0,0,0-1.883,1.033,2.213,2.213,0,0,0-.352,1.2v42.853l18.326,8.307,2.582,1.17,4.078,1.849a1.846,1.846,0,0,0,1.52,0l4.078-1.849,12.764-5.785,11.9-5.393,12.862-5.827V319.43a2.237,2.237,0,0,0-2.235-2.23Z" transform="translate(-487.741 -287.181)" fill="#f5a041"/>
    <path id="Path_3570" data-name="Path 3570" d="M669.994,431.2H632.653a3.286,3.286,0,0,0-3.282,3.158,1.059,1.059,0,0,0,0,.129,3.292,3.292,0,0,0,3.287,3.287h37.341a3.287,3.287,0,1,0,0-6.574Z" transform="translate(-521.643 -371.203)" fill="#fff"/>
    <path id="Path_3571" data-name="Path 3571" d="M672.122,478.479a3.264,3.264,0,0,0-2.127-.784H632.654a3.287,3.287,0,0,0,0,6.574H660.62l11.9-5.393a3.306,3.306,0,0,0-.4-.4Z" transform="translate(-521.644 -405.475)" fill="#fff"/>
    <path id="Path_3572" data-name="Path 3572" d="M662.877,524.7l4.079,1.849a1.846,1.846,0,0,0,1.52,0l4.079-1.849Z" transform="translate(-546.342 -440.115)" fill="#fff"/>
    <path id="Path_3573" data-name="Path 3573" d="M693.7,371.854a3.289,3.289,0,0,0-3.087-2.159H676.154a3.29,3.29,0,0,0-2.993,1.93,3.251,3.251,0,0,0-.3,1.357,3.292,3.292,0,0,0,3.287,3.287h14.463a3.287,3.287,0,0,0,3.087-4.415Z" transform="translate(-553.705 -325.875)" fill="#fff"/>
    <path id="Path_3574" data-name="Path 3574" d="M530.3,450.447l-12.764,5.785-3.021,1.37a1.319,1.319,0,0,1-1.083,0l-3.021-1.37h-1.275l4.079,1.849a1.846,1.846,0,0,0,1.52,0l4.079-1.849,12.764-5.785Zm0,0-12.764,5.785-3.021,1.37a1.319,1.319,0,0,1-1.083,0l-3.021-1.37h-1.275l4.079,1.849a1.846,1.846,0,0,0,1.52,0l4.079-1.849,12.764-5.785Zm0,0-12.764,5.785-3.021,1.37a1.319,1.319,0,0,1-1.083,0l-3.021-1.37h-1.275l4.079,1.849a1.846,1.846,0,0,0,1.52,0l4.079-1.849,12.764-5.785Zm42.84-18.089a2.014,2.014,0,0,0-.318-.258,1.83,1.83,0,0,0-1.757-.129l-27.987,12.685L530.3,450.447l-12.764,5.785-3.021,1.37a1.319,1.319,0,0,1-1.083,0l-3.021-1.37-3.148-1.428-19.031-8.623h-.005l-5.188-2.354-15.5-7.027-10.666-4.833a1.6,1.6,0,0,0-.339-.113,1.764,1.764,0,0,0-.786-.016,1.845,1.845,0,0,0-1.475,1.8v66.039a1.843,1.843,0,0,0,1.841,1.841h115.7a1.843,1.843,0,0,0,1.841-1.841V433.646a1.833,1.833,0,0,0-.526-1.289Zm0,67.327A1.315,1.315,0,0,1,571.823,501H456.117a1.315,1.315,0,0,1-1.315-1.315V433.646a1.315,1.315,0,0,1,.6-1.1,1.36,1.36,0,0,1,.423-.179,1.2,1.2,0,0,1,.134-.021,1.021,1.021,0,0,1,.155-.011,1.308,1.308,0,0,1,.542.118L467.79,437.5l15.4,6.979,4.328,1.962.7.318,18.326,8.307,2.582,1.17,4.079,1.849a1.846,1.846,0,0,0,1.52,0l4.079-1.849,12.764-5.785,11.9-5.393,27.811-12.6a1.315,1.315,0,0,1,1.254.092.5.5,0,0,1,.06.042.325.325,0,0,1,.058.047,1.3,1.3,0,0,1,.484,1.015ZM530.3,450.447l-12.764,5.785-3.021,1.37a1.319,1.319,0,0,1-1.083,0l-3.021-1.37h-1.275l4.079,1.849a1.846,1.846,0,0,0,1.52,0l4.079-1.849,12.764-5.785Zm0,0-12.764,5.785-3.021,1.37a1.319,1.319,0,0,1-1.083,0l-3.021-1.37h-1.275l4.079,1.849a1.846,1.846,0,0,0,1.52,0l4.079-1.849,12.764-5.785Zm-42.777-4.01.7.318v-.573Zm42.777,4.01-12.764,5.785-3.021,1.37a1.319,1.319,0,0,1-1.083,0l-3.021-1.37h-1.275l4.079,1.849a1.846,1.846,0,0,0,1.52,0l4.079-1.849,12.764-5.785Z" transform="translate(-392.597 -371.652)"/>
    <path id="Path_3575" data-name="Path 3575" d="M311.227,695.461H281.512a.263.263,0,1,1,0-.526h29.715a.263.263,0,1,1,0,.526Z" transform="translate(-265.07 -565.588)" fill="#3f3d56"/>
    <path id="Path_3576" data-name="Path 3576" d="M313.072,333.824a2.814,2.814,0,0,1,.26-5.135c1.949-.752,4.134.783,6.177.346s3.214-2.869,2.728-4.894a6.507,6.507,0,0,0-4.206-4.278,9.067,9.067,0,0,0-7.821.717,8.35,8.35,0,0,0-3.93,6.741,7.741,7.741,0,0,0,3.746,6.782,2.429,2.429,0,0,0,1.708.4,4.762,4.762,0,0,0,1.338-.679Z" transform="translate(-283.518 -288.727)" fill="#050038"/>
    <path id="Path_3577" data-name="Path 3577" d="M247.184,307.6a14.533,14.533,0,0,0-6.738-5.081,10.725,10.725,0,0,0-8.32.458,8.527,8.527,0,0,0-4.624,6.766c-.328,4.74,3.722,8.769,4.137,13.5a9.079,9.079,0,0,1-11.917,9.407,9.559,9.559,0,0,0,7.368,2.091,8.885,8.885,0,0,0,6.324-4.255,12.439,12.439,0,0,0,1.431-5.245,23.3,23.3,0,0,0-.912-8.545c-.454-1.51-1.07-3.063-.782-4.613a4.2,4.2,0,0,1,3.27-3.275,7.448,7.448,0,0,1,3.878.611,12.1,12.1,0,0,0,3.823,1.017,3.41,3.41,0,0,0,3.28-1.8Z" transform="translate(-219.723 -275.908)" fill="#050038"/>
  </g>
</svg>
